<?xml version="1.0" encoding="UTF-8"?>
<svg width="18px" height="18px" viewBox="0 0 18 18" version="1.1" xmlns="http://www.w3.org/2000/svg" xmlns:xlink="http://www.w3.org/1999/xlink">
  <g stroke="none" stroke-width="1" fill="none" fill-rule="evenodd">
    <g transform="translate(-592.000000, -402.000000)">
      <path d="M601,402 C605.970563,402 610,406.029437 610,411 C610,415.970563 605.970563,420 601,420 C596.029437,420 592,415.970563 592,411 C592,406.029437 596.029437,402 601,402 Z M601.5,406 C601.223858,406 601,406.223858 601,406.5 L601,406.5 L601,411 L596.5,411 C596.223858,411 596,411.223858 596,411.5 C596,411.74546 596.176875,411.949608 596.410124,411.991944 L596.5,412 L601,412 L601,416.5 C601,416.74546 601.176875,416.949608 601.410124,416.991944 L601.5,417 C601.776142,417 602,416.776142 602,416.5 L602,416.5 L602,412 L606.5,412 C606.776142,412 607,411.776142 607,411.5 C607,411.223858 606.776142,411 606.5,411 L602,411 L602,406.5 C602,406.25454 601.823125,406.050392 601.589876,406.008056 Z" id="形状结合" fill="currentColor"></path>
    </g>
  </g>
</svg>
