<?xml version="1.0" encoding="UTF-8"?>
<svg width="18px" height="18px" viewBox="0 0 18 18" version="1.1" xmlns="http://www.w3.org/2000/svg" xmlns:xlink="http://www.w3.org/1999/xlink">
  <g id="Welcome" stroke="none" stroke-width="1" fill-rule="evenodd">
    <g id="综合信息" transform="translate(-423.000000, -402.000000)">
      <path d="M432,402 C436.970563,402 441,406.029437 441,411 C441,415.970563 436.970563,420 432,420 C427.029437,420 423,415.970563 423,411 C423,406.029437 427.029437,402 432,402 Z M432,414 C430.895431,414 430,414.895431 430,416 C430,417.104569 430.895431,418 432,418 C433.104569,418 434,417.104569 434,416 C434,414.895431 433.104569,414 432,414 Z M432,404 C431.447715,404 431,404.447715 431,405 L431,405 L431,411 C431,411.552285 431.447715,412 432,412 C432.552285,412 433,411.552285 433,411 L433,411 L433,405 C433,404.447715 432.552285,404 432,404 Z" id="形状结合" fill="currentColor"></path>
    </g>
  </g>
</svg>
